<?xml version="1.0" encoding="utf-8"?>
<!DOCTYPE svg PUBLIC "-//W3C//DTD SVG 1.0//EN" "http://www.w3.org/TR/2001/REC-SVG-20010904/DTD/svg10.dtd">
<svg version="1.0" xmlns="http://www.w3.org/2000/svg" width="1902px" height="483px" viewBox="0 0 1902 483" preserveAspectRatio="xMidYMid meet">
 <g fill="#fdfdfc">
  <path d="M0 241.5 l0 -241.5 951 0 951 0 0 241.5 0 241.5 -951 0 -951 0 0 -241.5z m1686.4 232.7 c60 -8.4 103.1 -27.8 139.8 -63.2 36 -34.6 56.3 -75.3 64.5 -129.8 2.8 -18.3 3 -53.2 0.6 -70.3 -6.9 -45.9 -21.4 -81.8 -46.8 -115.1 -6.1 -8 -24.7 -27 -33.1 -33.8 -18 -14.5 -44.2 -29.2 -67 -37.5 -34.4 -12.5 -81.6 -19.2 -119.4 -17 -59.8 3.6 -104.3 18.6 -143.8 48.4 -12.1 9.2 -33.8 30.9 -42.8 43.1 -8.9 11.9 -18.9 28.5 -24.7 41.1 -9.9 21.4 -17.6 50.7 -20.3 76.4 -1.7 17 -0.7 54.2 1.9 69.2 8.7 50.5 28.3 89.9 61.3 122.7 18 17.9 35.9 30.7 57.2 40.9 26.4 12.6 55.4 20.9 85.9 24.5 6.8 0.8 13.8 1.6 15.6 1.8 9 1 60.5 -0.2 71.2 -1.7z m-1571.3 -152.9 l0 -152.4 3.6 0 3.5 0.1 27.2 36 c14.9 19.8 36.7 48.8 48.5 64.3 48.1 63.7 91.9 121.8 136.1 180.6 l17.5 23.2 41.3 0.3 41.2 0.2 0 -230.2 0 -230.2 -52.4 0 -52.4 0 0 134.4 0 134.4 -3.6 0 -3.7 0 -23.6 -31.3 c-70.1 -93.1 -117.3 -155.9 -146.2 -194.4 l-32.5 -43.1 -53 0.2 -53 0.3 -0.2 221.7 c-0.1 122 0.1 225.4 0.4 230 l0.6 8.2 50.3 0 50.4 0 0 -152.4z m470.5 109.7 l16 -42.7 100.9 -0.3 100.9 -0.2 10.7 28.5 c5.8 15.8 13.2 35.1 16.3 43 l5.6 14.3 54.2 0 54.2 0 -2.6 -7.3 c-4.6 -12.5 -34.1 -88.6 -48.7 -125.8 -7.6 -19.4 -24.4 -62.6 -37.5 -95.8 -36.6 -93.7 -39.1 -100 -57.3 -146.2 -9.4 -23.9 -20.9 -52.8 -25.4 -64.3 l-8.2 -21 -62.5 0 -62.5 0 -7.5 19.2 c-4.1 10.5 -12.5 32.2 -18.8 48.3 -6.2 16.1 -18.4 47.5 -27.1 69.8 -8.7 22.4 -20.3 52.5 -25.9 67 -5.6 14.5 -15.4 39.8 -21.7 56.1 -6.3 16.3 -24.6 63.9 -40.7 105.7 -16.1 41.8 -30.9 80.1 -32.9 85.2 l-3.6 9.2 54.1 0 54 0 16 -42.6z m487.1 -38.9 l0 -81.5 7.8 -0.7 c4.2 -0.3 22.9 -0.5 41.6 -0.3 l33.9 0.3 28.6 51.4 c41 73.8 60 107.3 62.2 110 l1.9 2.3 59.7 -0.2 59.8 -0.3 -24 -36.3 c-13.2 -20 -38.4 -57.9 -56 -84.4 -29.8 -44.8 -32 -48.4 -32 -52.3 0 -4 0.2 -4.2 4.2 -6.5 23.2 -12.5 31.5 -18.5 44.4 -32 9.2 -9.5 18.5 -22.5 23.6 -32.5 11 -22 16.9 -50.3 15.5 -74.9 -2.3 -39.7 -15.3 -71.1 -39.5 -95.3 -23.8 -23.7 -53.4 -37 -96.3 -43.1 -13.7 -2 -17.5 -2.1 -126.6 -2.4 l-112.6 -0.4 0 230.2 0 230.3 51.9 0 51.9 0 0 -81.5z"/>
  <path d="M1617.3 393.9 c-12.9 -1.7 -18.8 -2.9 -29.4 -6.3 -40.2 -12.7 -71.2 -44.5 -84.7 -86.6 -6.5 -20.4 -9.2 -46.3 -7.6 -73.5 2.5 -43.6 17.1 -77.7 44.3 -103.3 20.4 -19.2 47.1 -30.9 78.7 -34.5 12.4 -1.4 39 -1.1 50.4 0.5 53 7.5 90.3 35.9 110.1 84 7.8 19.2 11.7 41.5 11.7 68 0 26.6 -2.8 46.1 -9.6 65.4 -12.1 34.6 -39 62.4 -74.3 77 -9.5 3.9 -26.5 7.9 -39.5 9.4 -14.2 1.7 -36.6 1.7 -49.9 0z"/>
  <path d="M633.1 299.5 c0 -1.9 2.2 -9.2 4.8 -16.2 4.3 -11.7 52.4 -143.1 58.2 -159.3 2.5 -6.9 2.5 -6.9 5.8 -6.9 l3.5 0 3.1 8.8 c1.7 4.7 13.4 36.3 25.9 70 34.5 92.5 37.3 100 37.3 103.7 l0 3.4 -69.3 0 -69.3 0 0 -3.4z"/>
  <path d="M1073.2 224.4 c-0.3 -0.7 -0.4 -29.4 -0.3 -64 l0.3 -62.7 52.8 -0.3 c56.4 -0.2 61.8 0.1 75.3 4.6 19.6 6.5 33.5 21.9 37.9 42 2.5 10.8 1.6 30.6 -1.6 39.2 -8.1 21.7 -23.7 33.9 -50.8 39.7 -8.3 1.8 -13 2 -61.1 2.4 -42.6 0.4 -52.2 0.2 -52.6 -0.8z"/>
 </g>
 <g fill="#0d0d0e">
  <path d="M1612.4 478.7 c-1.8 -0.3 -8.8 -1 -15.6 -1.8 -30.5 -3.6 -59.4 -11.9 -85.9 -24.5 -37.3 -17.9 -70.2 -48.6 -91.1 -84.9 -13.6 -23.7 -22.1 -48 -27.4 -78.8 -2.5 -15 -3.6 -57.4 -1.8 -75 2.5 -25.7 10.3 -54.9 20.2 -76.3 5.8 -12.6 15.9 -29.2 24.7 -41.1 9.1 -12.2 30.8 -34 42.8 -43.1 39.9 -30.1 84.3 -44.9 145.4 -48.5 40.5 -2.4 88.3 4.2 123.5 17.1 22.8 8.3 49 22.9 67 37.5 8.4 6.8 27 25.8 33.1 33.8 25.4 33.3 39.9 69.1 46.8 115.1 2.5 17.4 2.3 57.5 -0.6 75.9 -8.3 54.6 -28.5 95.2 -64.5 129.8 -36.7 35.4 -79.6 54.7 -139.8 63.2 -8.4 1.1 -19.4 1.6 -42.5 1.8 -17.1 0.2 -32.6 0.1 -34.4 -0.1z m52 -87.6 c32.9 -3.9 60.4 -16.1 81.6 -36.5 28.4 -27.3 41.9 -63.5 41.9 -112.5 0 -38.7 -10.2 -71.4 -30.8 -98.7 -25.1 -33.3 -65.9 -51.8 -114.1 -51.9 -28.7 0 -49.3 4.5 -71.7 15.6 -38.9 19.2 -64.8 58 -71.7 107.4 -1.7 12.3 -2 41.8 -0.5 52.6 7.3 52.5 32.5 90.2 74.2 110.8 24.8 12.3 58.3 17.2 91 13.3z"/>
  <path d="M10.9 465.4 c-0.3 -6.1 -0.5 -110.9 -0.4 -232.8 l0.3 -221.7 55.9 -0.3 55.9 -0.2 32.5 43.1 c29 38.6 76.1 101.3 146.2 194.4 12.9 17.2 24 31.3 24.4 31.3 0.4 0 0.8 -60.5 0.8 -134.4 l0 -134.4 55.2 0 55.2 0 0 233 0 233 -44.1 -0.2 -44.2 -0.3 -17.5 -23.2 c-44.2 -58.8 -88 -116.9 -136.1 -180.6 -11.8 -15.6 -33.6 -44.5 -48.5 -64.3 -15 -19.8 -27.5 -36 -27.8 -36.1 -0.5 0 -0.8 68.6 -0.8 152.4 l0 152.4 -53.2 0 -53.2 0 -0.6 -11z"/>
  <path d="M458.9 470.6 c1.2 -3.3 5.5 -14.2 9.3 -24.3 8.8 -23 52.3 -135.8 67.6 -175.5 6.3 -16.3 16.1 -41.6 21.7 -56.1 5.7 -14.5 17.3 -44.6 25.9 -67 8.7 -22.3 20.9 -53.7 27.1 -69.8 6.2 -16.1 14.7 -37.8 18.8 -48.3 l7.5 -19.2 65.3 0 65.3 0 8.2 21 c4.5 11.5 15.9 40.5 25.4 64.3 18.2 46.2 20.7 52.6 57.3 146.2 13 33.2 30.3 77.4 38.4 98.1 16.9 43 52.4 135.1 52.4 135.9 0 0.3 -26 0.5 -57.9 0.5 l-58 0 -5.6 -14.3 c-3.1 -7.9 -10.5 -27.3 -16.3 -43 l-10.7 -28.5 -98.1 0.2 -98 0.3 -16 42.7 -16 42.6 -57.8 0 -57.9 0 2.3 -5.8z m310 -171.1 c0 -0.8 -11.1 -30.9 -37.3 -100.9 -12.5 -33.7 -24.2 -65.3 -25.9 -70.1 -1.7 -4.7 -3.4 -8.7 -3.8 -8.7 -0.3 0 -1.7 3.1 -3 6.9 -5.8 16.2 -53.9 147.7 -58.2 159.3 -2.6 7.1 -4.8 13.1 -4.8 13.4 0 0.3 29.9 0.6 66.5 0.6 36.6 0 66.5 -0.3 66.5 -0.6z"/>
 </g>
 <g fill="#f46321">
  <path d="M966.1 243.3 l0 -233 115.4 0.4 c112 0.3 115.7 0.4 129.4 2.4 42.9 6.1 72.6 19.4 96.3 43.1 24.9 24.8 37.8 56.7 39.6 98 1.3 27.8 -4.2 55.3 -15.6 77.8 -5.1 10 -14.4 22.9 -23.6 32.5 -12.9 13.5 -20.8 19.2 -44.4 32.1 -2.4 1.2 -4.2 2.9 -4.2 3.6 0.1 0.8 17.5 27.5 38.6 59.3 59.8 90.2 75.9 114.8 75.9 116 0 0.8 -18.7 1 -64.2 1 l-64.2 0 -3.2 -4.9 c-3.7 -6 -24.8 -43.4 -61.7 -109.7 l-27.3 -49.1 -31 -0.3 c-17.1 -0.2 -34.5 0 -38.8 0.3 l-7.8 0.7 0 81.5 0 81.5 -54.7 0 -54.7 0 0 -233.1z m217.9 -23.3 c33.7 -7.3 52.1 -26.4 53.5 -55.9 1.4 -28.2 -13.4 -50.8 -39.1 -59.2 -13.4 -4.5 -19.1 -4.8 -72.5 -4.6 l-50 0.3 -0.3 59.9 c-0.1 32.9 0 60.5 0.3 61.1 0.4 1 9.3 1.2 49.7 0.8 45.2 -0.4 50.1 -0.6 58.3 -2.4z"/>
 </g>
</svg>